<?xml version="1.0" encoding="utf-8"?>
<!-- Generator: Adobe Illustrator 22.0.1, SVG Export Plug-In . SVG Version: 6.00 Build 0)  -->
<svg version="1.1" id="Layer_1" className='animated fadeIn' xmlns="http://www.w3.org/2000/svg" xmlns:xlink="http://www.w3.org/1999/xlink" x="0px" y="0px"
	 viewBox="0 0 25 25" style="enable-background:new 0 0 25 25;" xml:space="preserve">
<style type="text/css">
	.st0{fill:#07BC0C;}
</style>
<path class="st0" d="M10.7,14.6c2-2,4-4,5.9-5.9c0.1-0.1,0.3-0.3,0.4-0.4c0.5-0.4,1.1-0.4,1.5,0c0.4,0.4,0.4,1,0,1.5
	c-0.2,0.2-0.4,0.4-0.6,0.6c-2.1,2.1-4.2,4.2-6.3,6.2c-0.8,0.8-1.3,0.8-2.1,0c-0.9-0.9-1.8-1.8-2.7-2.7c-0.6-0.6-0.6-1.2-0.2-1.6
	c0.5-0.5,1.1-0.4,1.7,0.1C9.2,13.1,9.9,13.8,10.7,14.6z M12.5,24.5c6.6,0,12-5.4,12-12s-5.4-12-12-12s-12,5.4-12,12
	S5.9,24.5,12.5,24.5z"/>
</svg>
