<?xml version="1.0" encoding="utf-8"?>
<!-- Generator: Adobe Illustrator 22.0.1, SVG Export Plug-In . SVG Version: 6.00 Build 0)  -->
<svg version="1.1" id="Layer_1" xmlns="http://www.w3.org/2000/svg" xmlns:xlink="http://www.w3.org/1999/xlink" x="0px" y="0px"
	 viewBox="0 0 389.6 184.9" style="enable-background:new 0 0 389.6 184.9;" xml:space="preserve">
<style type="text/css">
	.st0{fill:url(#SVGID_1_);}
	.st1{fill:url(#SVGID_2_);}
	.st2{fill:url(#SVGID_3_);}
	.st3{fill:url(#SVGID_4_);}
	.st4{fill:url(#SVGID_5_);}
	.st5{fill:url(#SVGID_6_);}
	.st6{fill:url(#SVGID_7_);}
	.st7{fill:url(#SVGID_8_);}
</style>
<g>
	<g>
		<linearGradient id="SVGID_1_" gradientUnits="userSpaceOnUse" x1="-42.7605" y1="14.5633" x2="430.3442" y2="209.7601">
			<stop  offset="0" style="stop-color:#FCB74B"/>
			<stop  offset="0.5885" style="stop-color:#EE317E"/>
			<stop  offset="1" style="stop-color:#6354A3"/>
		</linearGradient>
		<path class="st0" d="M3,0h30.1c7.3,0.1,16.1,0.2,24.8,6.5c14,9.9,16.2,26.8,16.2,36.1c0,14.4-4.9,29-17.2,36.1
			c-8.3,4.9-17.1,5-27,5.1H3V0z M18.7,14.3v55.5h6.7c11.9,0,16.1-0.6,19.6-1.9c6.1-2.4,12.5-7.6,12.5-25.1c0-7.8-1.2-20.7-12.8-26.3
			c-4.5-2-7-2.1-17.6-2.3H18.7z"/>
		<linearGradient id="SVGID_2_" gradientUnits="userSpaceOnUse" x1="-30.0109" y1="-16.3377" x2="443.0932" y2="178.8589">
			<stop  offset="0" style="stop-color:#FCB74B"/>
			<stop  offset="0.5885" style="stop-color:#EE317E"/>
			<stop  offset="1" style="stop-color:#6354A3"/>
		</linearGradient>
		<path class="st1" d="M99.1,35h35.1v13.4H99.1v35.5H83.5V0h55.5v14H99.1V35z"/>
		<linearGradient id="SVGID_3_" gradientUnits="userSpaceOnUse" x1="-75.2505" y1="93.3104" x2="397.854" y2="288.5071">
			<stop  offset="0" style="stop-color:#FCB74B"/>
			<stop  offset="0.5885" style="stop-color:#EE317E"/>
			<stop  offset="1" style="stop-color:#6354A3"/>
		</linearGradient>
		<path class="st2" d="M76,136.8v45.9H62.5v-7.1c-7.5,7.4-15.9,9.3-22.9,9.3C13.7,184.9,0,164.2,0,141.6c0-26.4,17.5-44.9,40.5-44.9
			c17.5,0,30.3,10.7,35.4,24.7l-15,6.1c-1.5-4.6-6.1-16.6-20.3-16.6c-15.8,0-23.5,13.8-23.5,30.3c0,18.4,10.1,29,23.8,29
			c8.8,0,19.3-4.6,20.7-19.5H40.7v-13.8H76z"/>
		<linearGradient id="SVGID_4_" gradientUnits="userSpaceOnUse" x1="-65.1514" y1="68.8327" x2="407.9528" y2="264.0293">
			<stop  offset="0" style="stop-color:#FCB74B"/>
			<stop  offset="0.5885" style="stop-color:#EE317E"/>
			<stop  offset="1" style="stop-color:#6354A3"/>
		</linearGradient>
		<path class="st3" d="M88.8,98.8h26.8c11.2,0.1,18.7,0.1,26,6.1c5.2,4.3,9.3,10.9,9.3,20.7c0,16-11.8,21.6-16.5,23.1l18.7,34.1h-18
			l-16.6-31.1h-14v31.1H88.8V98.8z M104.3,112.3v26.3h5.5c5.4,0,7.4-0.1,10.3-0.2c3.4-0.1,14.7-0.7,14.7-13c0-1.8-0.1-8-6.7-11.3
			c-3.3-1.7-7.4-1.8-16.6-1.8H104.3z"/>
		<linearGradient id="SVGID_5_" gradientUnits="userSpaceOnUse" x1="-52.5799" y1="38.3617" x2="420.5245" y2="233.5583">
			<stop  offset="0" style="stop-color:#FCB74B"/>
			<stop  offset="0.5885" style="stop-color:#EE317E"/>
			<stop  offset="1" style="stop-color:#6354A3"/>
		</linearGradient>
		<path class="st4" d="M195.7,184.9c-10.6,0-20.3-3-28.9-12.8c-8.3-9.6-11.2-20.6-11.2-31.1c0-25.7,17.4-44.2,40.3-44.2
			c20.8,0,40.3,15.5,40.2,44.1C236,164.8,221.5,184.9,195.7,184.9z M195.8,111c-14.4,0-24,11.6-24,29.1c0,18.9,10.5,30.2,24.4,30.2
			c10.5,0,23.9-7.6,24.3-27.8C220.8,126.1,212.4,111,195.8,111z"/>
		<linearGradient id="SVGID_6_" gradientUnits="userSpaceOnUse" x1="-39.0375" y1="5.5405" x2="434.0664" y2="200.737">
			<stop  offset="0" style="stop-color:#FCB74B"/>
			<stop  offset="0.5885" style="stop-color:#EE317E"/>
			<stop  offset="1" style="stop-color:#6354A3"/>
		</linearGradient>
		<path class="st5" d="M313.2,98.8v52.9c-0.1,9.5-0.1,17.4-9,25c-8.6,7.5-19.6,8.2-25.3,8.2c-5.1,0-10.1-0.6-14.9-2.3
			c-10-3.5-15.3-10.7-17.2-17c-1.1-3.7-1.1-6.3-1.2-16.8V98.8h15.7v51.6c0,3.6-0.1,7,1.1,10.2c3.2,8.1,12,9,17,9
			c2.5,0,8.8-0.1,13.4-4.2c4.6-4.2,4.6-8.9,4.6-15.9V98.8H313.2z"/>
		<linearGradient id="SVGID_7_" gradientUnits="userSpaceOnUse" x1="-30.5259" y1="-15.091" x2="442.5784" y2="180.1056">
			<stop  offset="0" style="stop-color:#FCB74B"/>
			<stop  offset="0.5885" style="stop-color:#EE317E"/>
			<stop  offset="1" style="stop-color:#6354A3"/>
		</linearGradient>
		<path class="st6" d="M327.2,98.8h28.3c4.6,0,9.5,0,14.4,1.3c8.2,2.3,19.7,9.6,19.7,26.6c0,11.2-5.2,23.2-20.2,26.5
			c-4.6,1.1-9,1.1-14.1,1.1H343v28.4h-15.8V98.8z M343,112.2v29.1h11.3c3.3,0,6.2,0,8.9-0.7c9.7-2.4,10.3-11.3,10.3-14.3
			c0-6.2-2.7-9.4-4.2-10.7c-3.9-3.3-9.4-3.4-14.5-3.4H343z"/>
	</g>
	<g>
		<g>
			<g>
				<g>
					<g>
						<g>
							<g>
								<linearGradient id="SVGID_8_" gradientUnits="userSpaceOnUse" x1="-11.2232" y1="-61.8743" x2="461.8823" y2="133.3228">
									<stop  offset="0" style="stop-color:#FCB74B"/>
									<stop  offset="0.5885" style="stop-color:#EE317E"/>
									<stop  offset="1" style="stop-color:#6354A3"/>
								</linearGradient>
								<path class="st7" d="M150.3,8.4c0-4.6,3.9-8.3,8.8-8.3c4.9,0,8.8,3.7,8.8,8.3c0,4.6-4,8.3-8.8,8.3
									C154.2,16.7,150.3,13,150.3,8.4z M165.9,8.4c0-3.6-3.1-6.6-6.8-6.6c-3.7,0-6.8,2.9-6.8,6.6c0,3.7,3.1,6.6,6.8,6.6
									C162.8,15,165.9,12,165.9,8.4z M157,9.2v3.3c0,0.5-0.3,0.7-0.8,0.7c-0.5,0-0.8-0.3-0.8-0.7V4.2c0-0.4,0.2-0.5,0.6-0.5h3.2
									c2.4,0,3.7,0.7,3.7,2.7c0,1.8-1.1,2.5-2.5,2.6l2.2,3.1c0.1,0.1,0.2,0.4,0.2,0.6c0,0.3-0.5,0.4-0.9,0.4
									c-0.4,0-0.7-0.1-0.9-0.5l-2.3-3.5H157z M158.9,7.8c1.2,0,2.4-0.1,2.4-1.5c0-1.1-1.2-1.2-2.2-1.2h-2v2.7H158.9z"/>
							</g>
						</g>
					</g>
				</g>
			</g>
		</g>
	</g>
</g>
</svg>
