<?xml version="1.0" encoding="utf-8"?>
<!-- Generator: Adobe Illustrator 21.0.0, SVG Export Plug-In . SVG Version: 6.00 Build 0)  -->
<svg version="1.1" id="Layer_1" xmlns="http://www.w3.org/2000/svg" xmlns:xlink="http://www.w3.org/1999/xlink" x="0px" y="0px"
	 viewBox="0 0 401 128" style="enable-background:new 0 0 401 128;" xml:space="preserve">
<style type="text/css">
	.st0{fill:#333333;}
	.st1{fill:url(#SVGID_1_);}
	.st2{fill:url(#SVGID_2_);}
	.st3{fill:url(#SVGID_3_);}
</style>
<g>
	<g>
		<g>
			<g>
				<g>
					<path class="st0" d="M162.5,40.3v-36h12.9c4.5,0,8,0.9,10.7,2.8c4.6,3.3,7,8.4,7,15.5c0,3.3-0.6,6.3-1.8,8.9
						c-1.2,2.9-3.1,5.1-5.7,6.6c-2.5,1.5-6.4,2.2-11.6,2.2H162.5z M172.9,10.4h-3.5v23.8h2.8c4.2,0,7-0.3,8.4-0.8
						c3.5-1.3,5.3-4.9,5.3-10.7c0-5.8-1.8-9.5-5.5-11.3c-0.9-0.4-1.8-0.7-2.8-0.8C176.8,10.4,175.2,10.4,172.9,10.4z"/>
					<path class="st0" d="M203.1,10.3v9h15V25h-15v15.2h-6.7v-36h23.8v6H203.1z"/>
					<path class="st0" d="M188.2,51.1h-19v8.5h17.4v5.8h-17.4V75h20.3v6.1h-26.9v-36h25.6V51.1z"/>
					<path class="st0" d="M213.6,70.5l-0.8-25.5h6.6v36h-5.9l-15.8-25.3l0.4,25.3h-6.6v-36h6.1L213.6,70.5z"/>
					<path class="st0" d="M248.1,45.1v6.1h-9.9v29.9h-6.8V51.2h-9.7v-6.1H248.1z"/>
					<path class="st0" d="M276.2,51.1h-19v8.5h17.4v5.8h-17.4V75h20.3v6.1h-26.9v-36h25.6V51.1z"/>
					<path class="st0" d="M279.3,81.1v-36h11.4c2.9,0,5,0.1,6.2,0.4c1.9,0.4,3.5,1.1,4.9,2.3c2.6,2.1,4,5.1,4,8.9
						c0,3-0.9,5.4-2.7,7.3c-1.2,1.2-2.7,2.1-4.3,2.6l8,14.6h-7.7L292,67.7h-6v13.4H279.3z M289.1,50.9H286v11.3h2.4
						c1.1,0,2.6,0,4.4-0.1c4.2-0.2,6.3-2,6.3-5.6c0-2.3-1-3.9-2.9-4.9C295.2,51.1,292.8,50.9,289.1,50.9z"/>
					<path class="st0" d="M308.8,62.2h12.7v5.7h-12.7V62.2z"/>
					<g>
						<linearGradient id="SVGID_1_" gradientUnits="userSpaceOnUse" x1="155.4851" y1="139.581" x2="180.6759" y2="80.9469">
							<stop  offset="0" style="stop-color:#FFB749"/>
							<stop  offset="0.5885" style="stop-color:#FF267D"/>
							<stop  offset="1" style="stop-color:#6F17FF"/>
						</linearGradient>
						<path class="st1" d="M189,85.9V92h-9.9v29.9h-6.8V92h-9.8v-6.1H189z"/>
					</g>
					<path class="st0" d="M210.9,121.9l-2.1-7h-13.5l-2.1,7H186l12.2-36h7.7l12.3,36H210.9z M197.1,109h10l-5-16.6L197.1,109z"/>
					<path class="st0" d="M221.5,85.9h6.6v36h-6.6V85.9z"/>
					<path class="st0" d="M287.7,85.9h9.8v36h-6.6l0.6-29.6l-7.8,29.6h-6.1l-7.8-29.6l0.7,29.6h-6.6v-36h9.8l7,26.7L287.7,85.9z"/>
					<path class="st0" d="M327.2,91.9h-19v8.5h17.4v5.8h-17.4v9.6h20.3v6.1h-26.9v-36h25.6V91.9z"/>
					<path class="st0" d="M353.7,111.3l-0.8-25.5h6.6v36h-5.9l-15.8-25.3l0.4,25.3h-6.6v-36h6.1L353.7,111.3z"/>
					<path class="st0" d="M254,111.3l-0.8-25.5h6.6v36H254l-15.8-25.3l0.4,25.3H232v-36h6.1L254,111.3z"/>
					<path class="st0" d="M390.3,85.9V92h-9.9v29.9h-6.8V92h-9.7v-6.1H390.3z"/>
				</g>
			</g>
		</g>
	</g>
	<g>
		<g>
			<g>
				<g>
					<g>
						<g>
							<g>
								<path class="st0" d="M390.3,117c0-2.7,2.3-4.9,5.2-4.9c2.9,0,5.2,2.2,5.2,4.9c0,2.7-2.3,4.9-5.2,4.9
									C392.6,121.9,390.3,119.7,390.3,117z M399.5,117c0-2.1-1.8-3.9-4-3.9c-2.2,0-4,1.7-4,3.9c0,2.2,1.9,3.9,4,3.9
									C397.7,120.9,399.5,119.1,399.5,117z M394.3,117.5v1.9c0,0.3-0.2,0.4-0.5,0.4c-0.3,0-0.5-0.2-0.5-0.4v-4.9
									c0-0.2,0.1-0.3,0.3-0.3h1.9c1.4,0,2.2,0.4,2.2,1.6c0,1-0.7,1.5-1.5,1.6l1.3,1.8c0.1,0.1,0.1,0.3,0.1,0.3
									c0,0.2-0.3,0.2-0.5,0.2c-0.3,0-0.4-0.1-0.5-0.3l-1.4-2.1H394.3z M395.4,116.6c0.7,0,1.4,0,1.4-0.9c0-0.7-0.7-0.7-1.3-0.7
									h-1.2v1.6H395.4z"/>
							</g>
						</g>
					</g>
				</g>
			</g>
		</g>
	</g>
	<g>
		<linearGradient id="SVGID_2_" gradientUnits="userSpaceOnUse" x1="26.7341" y1="112.9771" x2="77.6639" y2="-7.0205">
			<stop  offset="0" style="stop-color:#FFB749"/>
			<stop  offset="0.5885" style="stop-color:#FF267D"/>
			<stop  offset="1" style="stop-color:#6F17FF"/>
		</linearGradient>
		<path class="st2" d="M75.6,71.7l-25.9,3.3h0c-1.9,0.2-2.6,0.3-3.8-3.8l-5.1-19.4c-0.5-1.9,1.1-1.8,2.5-1.2c0,0,0,0,0,0l14.1,6
			c1.9,0.8,4.7,0.5,6.4-0.7l12.2-8.8c1.7-1.2,2-3.5,0.9-5.2l-1.2-1.7c-1.2-1.6-3.5-2-5.2-0.9l-7.9,5.7c-1.6,1.2-4.5,1.5-6.4,0.7
			l-16.2-6.9c3.2-2.5,5.3-6.4,5.3-10.8c0-7.6-6.2-13.8-13.8-13.8c-7.6,0-13.8,6.2-13.8,13.8c0,5.9,3.7,10.9,9,12.9L2,68.2
			c-1.4,1.5-1.3,3.9,0.2,5.2l1.5,1.4c1.5,1.4,3.9,1.3,5.2-0.2l19.2-21l0,0c1.6-1.8,2.7-2.5,3.3,0c0,0,0,0,0,0.1L38.1,79
			c0.5,2,1.8,5,2.9,6.7l3.8,6.1c1.1,1.7,2.2,3.4-0.4,5.9l-19.6,23c-1.3,1.6-1.1,3.9,0.4,5.2l1.6,1.3c1.5,1.3,3.9,1.1,5.2-0.4
			l24.1-28.3c1.3-1.6,1.5-4.2,0.4-5.9l-3.7-5.9c-0.7-1.2-0.3-2.4,2.2-2.8l0,0l9.1-1.2c2-0.3,3.4,1.2,3.1,3.2l-4.2,26.2
			c-0.3,2,1.1,3.9,3.1,4.2l2.1,0.3c2,0.3,3.9-1,4.2-3.1l6.2-38.7C79,72.9,77.6,71.5,75.6,71.7z M31.6,23.8c2.4,0,4.3,1.9,4.3,4.3
			c0,2.4-1.9,4.3-4.3,4.3c-2.4,0-4.3-1.9-4.3-4.3C27.3,25.8,29.2,23.8,31.6,23.8z"/>
		<linearGradient id="SVGID_3_" gradientUnits="userSpaceOnUse" x1="73.9305" y1="133.0107" x2="124.8618" y2="13.0096">
			<stop  offset="0" style="stop-color:#FFB749"/>
			<stop  offset="0.5885" style="stop-color:#FF267D"/>
			<stop  offset="1" style="stop-color:#6F17FF"/>
		</linearGradient>
		<path class="st3" d="M108.4,70.2l-22.2,38.6c-0.7,1.9,0.3,4,2.2,4.7l2,0.7c1.9,0.7,4-0.3,4.8-2.2l16.2-28.6l0,0
			c2.1-3.8,3.6-3.7,4.8,1.4c0,0.2,0,0.1,0.1,0.2l9.5,38.2c0.8,1.9,3,2.8,4.8,2l1.9-0.8c1.9-0.8,2.8-3,2-4.8l-12.8-48.1l-5.6-31
			c0.3-0.1,0.6,0.1,1.1,0.4l14.1,11.8c3.6,3,6.1,0.4,7.1-2.8l5.4-20.7c0.5-2-0.7-4-2.6-4.5l-2-0.5c-2-0.5-4,0.7-4.5,2.7l-2.8,10.9
			c-0.5,2-1.2,2.1-2.7,0.7l-13.7-11.4c3.6-2.5,6-6.7,6-11.4c0-7.6-6.2-13.8-13.8-13.8c-7.6,0-13.8,6.2-13.8,13.8
			c0,1.4,0.2,2.7,0.6,4l-3.6-0.9c-2-0.5-4.6-2.2-5.7-3.9l-6.2-9c-1.2-1.7-3.5-2.1-5.2-0.9l-1.7,1.2c-1.7,1.2-2.1,3.5-0.9,5.1
			l8.3,11.9c1.2,1.7,2.2,3.1,5.7,3.9l15.5,3.3c1.2,0.3,2.2,1.2,2.8,3.2c3.3,13.9,5.6,23.2,5.6,23.2S111.6,63.8,108.4,70.2z
			 M107.7,11.5c2.4,0,4.3,1.9,4.3,4.3c0,2.4-1.9,4.3-4.3,4.3c-2.4,0-4.3-1.9-4.3-4.3C103.4,13.4,105.3,11.5,107.7,11.5z"/>
	</g>
</g>
</svg>
